<?xml version="1.0" encoding="iso-8859-1"?>
<!-- Uploaded to: SVG Repo, www.svgrepo.com, Generator: SVG Repo Mixer Tools -->
<svg height="800px" width="800px" version="1.1" id="Layer_1" xmlns="http://www.w3.org/2000/svg" xmlns:xlink="http://www.w3.org/1999/xlink" 
	 viewBox="0 0 512.001 512.001" xml:space="preserve">
<path style="fill:#FF6342;" d="M455.358,37.044H56.642C25.409,37.044,0,62.453,0,93.686v286.46
	c0,31.233,25.409,56.642,56.642,56.642h398.717c31.233,0,56.642-25.409,56.642-56.642V93.686
	C512,62.453,486.591,37.044,455.358,37.044z"/>
<path style="fill:#FE5022;" d="M455.358,37.044h-27.321c31.233,0,56.642,25.409,56.642,56.642v286.46
	c0,31.233-25.409,56.642-56.642,56.642h27.321c31.233,0,56.642-25.409,56.642-56.642V93.686
	C512,62.453,486.591,37.044,455.358,37.044z"/>
<path style="fill:#FFB656;" d="M134.16,470.196l-21.216,14.144c-6.146,4.097-14.378-0.309-14.378-7.695V346.434h71.187v130.211
	c0,7.386-8.231,11.792-14.378,7.695L134.16,470.196z"/>
<path style="fill:#D9CBBD;" d="M452.62,80.851H56.642c-7.077,0-12.834,5.757-12.834,12.834v286.46
	c0,7.077,5.757,12.834,12.834,12.834h395.979c7.077,0,12.835-5.757,12.835-12.834V93.686
	C465.455,86.609,459.697,80.851,452.62,80.851z"/>
<path style="fill:#ECE5DD;" d="M56.642,80.851h197.989V392.98H56.642c-7.077,0-12.834-5.757-12.834-12.834V93.686
	C43.807,86.609,49.565,80.851,56.642,80.851z"/>
<g>
	<path style="fill:#BABABA;" d="M90.353,179.418h76.663c4.536,0,8.214-3.677,8.214-8.214s-3.678-8.214-8.214-8.214H90.353
		c-4.536,0-8.214,3.677-8.214,8.214S85.817,179.418,90.353,179.418z"/>
	<path style="fill:#BABABA;" d="M210.824,162.991h-10.952c-4.536,0-8.214,3.677-8.214,8.214s3.678,8.214,8.214,8.214h10.952
		c4.536,0,8.214-3.677,8.214-8.214S215.36,162.991,210.824,162.991z"/>
	<path style="fill:#BABABA;" d="M90.353,245.13h32.856c4.536,0,8.214-3.677,8.214-8.214s-3.678-8.214-8.214-8.214H90.353
		c-4.536,0-8.214,3.677-8.214,8.214S85.817,245.13,90.353,245.13z"/>
	<path style="fill:#BABABA;" d="M147.85,236.916c0,4.537,3.678,8.214,8.214,8.214h43.807c4.536,0,8.214-3.677,8.214-8.214
		s-3.678-8.214-8.214-8.214h-43.807C151.528,228.702,147.85,232.378,147.85,236.916z"/>
	<path style="fill:#BABABA;" d="M210.824,294.413H90.353c-4.536,0-8.214,3.677-8.214,8.214c0,4.537,3.678,8.214,8.214,8.214h120.471
		c4.536,0,8.214-3.677,8.214-8.214C219.037,298.09,215.36,294.413,210.824,294.413z"/>
	<path style="fill:#BABABA;" d="M375.102,179.418h-32.856c-4.536,0-8.214-3.677-8.214-8.214s3.678-8.214,8.214-8.214h32.856
		c4.536,0,8.214,3.677,8.214,8.214S379.638,179.418,375.102,179.418z"/>
	<path style="fill:#BABABA;" d="M375.102,310.841h-32.856c-4.536,0-8.214-3.677-8.214-8.214c0-4.537,3.678-8.214,8.214-8.214h32.856
		c4.536,0,8.214,3.677,8.214,8.214C383.316,307.164,379.638,310.841,375.102,310.841z"/>
</g>
<path style="fill:#FFB656;" d="M372.364,434.905V38.927c0-7.088,5.746-12.834,12.835-12.834h23.614
	c7.088,0,12.835,5.746,12.835,12.834v395.978c0,7.088-5.746,12.835-12.835,12.835h-23.614
	C378.11,447.739,372.364,441.993,372.364,434.905z"/>
<g>
	<path style="fill:#FF6342;" d="M276.535,245.13h-43.807c-4.536,0-8.214-3.677-8.214-8.214s3.678-8.214,8.214-8.214h43.807
		c4.536,0,8.214,3.677,8.214,8.214S281.071,245.13,276.535,245.13z"/>
	<path style="fill:#FF6342;" d="M276.535,343.696h-43.807c-4.536,0-8.214-3.677-8.214-8.214s3.678-8.214,8.214-8.214h43.807
		c4.536,0,8.214,3.677,8.214,8.214S281.071,343.696,276.535,343.696z"/>
	<path style="fill:#FF6342;" d="M276.535,146.563h-43.807c-4.536,0-8.214-3.677-8.214-8.214c0-4.537,3.678-8.214,8.214-8.214h43.807
		c4.536,0,8.214,3.677,8.214,8.214C284.749,142.885,281.071,146.563,276.535,146.563z"/>
</g>
<g>
	<path style="fill:#BABABA;" d="M298.439,179.418h10.952c4.536,0,8.214-3.677,8.214-8.214s-3.678-8.214-8.214-8.214h-10.952
		c-4.536,0-8.214,3.677-8.214,8.214S293.902,179.418,298.439,179.418z"/>
	<path style="fill:#BABABA;" d="M350.46,236.916c0-4.537-3.678-8.214-8.214-8.214h-21.904c-4.536,0-8.214,3.677-8.214,8.214
		s3.678,8.214,8.214,8.214h21.904C346.782,245.13,350.46,241.452,350.46,236.916z"/>
	<path style="fill:#BABABA;" d="M309.39,294.413h-10.952c-4.536,0-8.214,3.677-8.214,8.214c0,4.537,3.678,8.214,8.214,8.214h10.952
		c4.536,0,8.214-3.677,8.214-8.214C317.604,298.09,313.927,294.413,309.39,294.413z"/>
</g>
</svg>